<svg xmlns="http://www.w3.org/2000/svg" xmlns:xlink="http://www.w3.org/1999/xlink" width="500" zoomAndPan="magnify" viewBox="0 0 375 374.999991" height="500" preserveAspectRatio="xMidYMid meet" version="1.0"><defs><clipPath id="75ddbc6852"><path d="M 21.996094 21.996094 L 353.003906 21.996094 L 353.003906 353 L 21.996094 353 Z M 21.996094 21.996094 " clip-rule="nonzero"/></clipPath><clipPath id="524f032fd2"><path d="M 187.5 21.996094 C 96.097656 21.996094 21.996094 96.097656 21.996094 187.5 C 21.996094 278.902344 96.097656 353 187.5 353 C 278.902344 353 353.003906 278.902344 353.003906 187.5 C 353.003906 96.097656 278.902344 21.996094 187.5 21.996094 Z M 187.5 21.996094 " clip-rule="nonzero"/></clipPath><clipPath id="284d2ffc36"><path d="M 21.996094 23.894531 L 196.398438 23.894531 L 196.398438 198.296875 L 21.996094 198.296875 Z M 21.996094 23.894531 " clip-rule="nonzero"/></clipPath><clipPath id="d340e9fc73"><path d="M 109.199219 23.894531 C 61.039062 23.894531 21.996094 62.9375 21.996094 111.09375 C 21.996094 159.253906 61.039062 198.296875 109.199219 198.296875 C 157.355469 198.296875 196.398438 159.253906 196.398438 111.09375 C 196.398438 62.9375 157.355469 23.894531 109.199219 23.894531 Z M 109.199219 23.894531 " clip-rule="nonzero"/></clipPath><clipPath id="41866529d7"><path d="M 143.898438 220.304688 L 231.101562 220.304688 L 231.101562 307.503906 L 143.898438 307.503906 Z M 143.898438 220.304688 " clip-rule="nonzero"/></clipPath><clipPath id="e5fedfbda6"><path d="M 187.5 220.304688 C 163.421875 220.304688 143.898438 239.824219 143.898438 263.90625 C 143.898438 287.984375 163.421875 307.503906 187.5 307.503906 C 211.578125 307.503906 231.101562 287.984375 231.101562 263.90625 C 231.101562 239.824219 211.578125 220.304688 187.5 220.304688 Z M 187.5 220.304688 " clip-rule="nonzero"/></clipPath><clipPath id="7039f54ff1"><path d="M 231.101562 133.105469 L 318.300781 133.105469 L 318.300781 220.304688 L 231.101562 220.304688 Z M 231.101562 133.105469 " clip-rule="nonzero"/></clipPath><clipPath id="50e5222384"><path d="M 274.699219 133.105469 C 250.621094 133.105469 231.101562 152.625 231.101562 176.703125 C 231.101562 200.785156 250.621094 220.304688 274.699219 220.304688 C 298.78125 220.304688 318.300781 200.785156 318.300781 176.703125 C 318.300781 152.625 298.78125 133.105469 274.699219 133.105469 Z M 274.699219 133.105469 " clip-rule="nonzero"/></clipPath></defs><g clip-path="url(#75ddbc6852)"><g clip-path="url(#524f032fd2)"><path fill="#000000" d="M 21.996094 21.996094 L 353.003906 21.996094 L 353.003906 353.003906 L 21.996094 353.003906 Z M 21.996094 21.996094 " fill-opacity="1" fill-rule="nonzero"/></g></g><g clip-path="url(#284d2ffc36)"><g clip-path="url(#d340e9fc73)"><path fill="#ffffff" d="M 21.996094 23.894531 L 196.398438 23.894531 L 196.398438 198.296875 L 21.996094 198.296875 Z M 21.996094 23.894531 " fill-opacity="1" fill-rule="nonzero"/></g></g><g clip-path="url(#41866529d7)"><g clip-path="url(#e5fedfbda6)"><path fill="#ffffff" d="M 143.898438 220.304688 L 231.101562 220.304688 L 231.101562 307.503906 L 143.898438 307.503906 Z M 143.898438 220.304688 " fill-opacity="1" fill-rule="nonzero"/></g></g><g clip-path="url(#7039f54ff1)"><g clip-path="url(#50e5222384)"><path fill="#ffffff" d="M 231.101562 133.105469 L 318.300781 133.105469 L 318.300781 220.304688 L 231.101562 220.304688 Z M 231.101562 133.105469 " fill-opacity="1" fill-rule="nonzero"/></g></g></svg>